Coordinates
version=1
nRows=16
nColumns=22
inDegrees=yes

Units are S.I. units (second, meters, Newtons, ...)
If the header above contains a line with 'inDegrees', this indicates whether rotational values are in degrees (yes) or radians (no).

endheader
time	pelvis_tilt	pelvis_list	pelvis_rotation	pelvis_tx	pelvis_ty	pelvis_tz	hip_flexion_r	hip_adduction_r	hip_rotation_r	knee_angle_r	ankle_angle_r	subtalar_angle_r	hip_flexion_l	hip_adduction_l	hip_rotation_l	knee_angle_l	ankle_angle_l	subtalar_angle_l	lumbar_extension	lumbar_bending	lumbar_rotation
      1.19000000	     -3.13727542	     -5.29574208	     -4.38291272	     -1.32515723	      1.00825615	     -0.39179656	     -1.06475612	     11.10645403	      4.69101117	     -9.73953358	     12.75857987	     -7.26890541	     28.49988625	     -6.04610480	      4.61255996	    -27.48060148	      8.24227214	      6.20500365	    -13.56385450	      2.76554646	      5.70023053
      1.20000000	     -3.25083557	     -5.28036618	     -4.58220399	     -1.32128348	      1.00753123	     -0.39165425	     -1.16323230	     11.07010455	      4.87994838	     -9.82948737	     13.02969715	     -7.24988924	     28.58320180	     -5.99968316	      4.68796960	    -26.55093940	      8.03818230	      6.48163825	    -13.54715584	      2.75782346	      5.73922927
      1.21000000	     -3.35020074	     -5.26029648	     -4.80401778	     -1.31723325	      1.00679849	     -0.39148053	     -1.27981296	     11.02691336	      5.09126345	     -9.93898815	     13.30738641	     -7.21787732	     28.64827530	     -5.96459249	      4.71735597	    -25.71367686	      7.90099138	      6.81898478	    -13.53545409	      2.73697139	      5.78684948
      1.22000000	     -3.43556381	     -5.24723708	     -5.03491841	     -1.31297432	      1.00605540	     -0.39132646	     -1.43127287	     10.98491851	      5.30273372	    -10.03408340	     13.57015746	     -7.17586606	     28.70028111	     -5.93950086	      4.73759642	    -24.98616675	      7.83809279	      7.18211586	    -13.52504362	      2.72700806	      5.85001683
      1.23000000	     -3.52877063	     -5.21058932	     -5.26476645	     -1.30850354	      1.00525974	     -0.39118988	     -1.58720803	     10.91639073	      5.53682887	    -10.12661532	     13.88818924	     -7.16557641	     28.76025633	     -5.89216656	      4.73948486	    -24.35895906	      7.79092461	      7.37170266	    -13.48307631	      2.69369808	      5.86727634
      1.24000000	     -3.60140124	     -5.16136340	     -5.51500035	     -1.30382141	      1.00447209	     -0.39106748	     -1.76442907	     10.82766733	      5.77669544	    -10.24396614	     14.20591251	     -7.14459671	     28.78757335	     -5.84096195	      4.70234149	    -23.82749213	      7.79327217	      7.59243420	    -13.44663131	      2.64788968	      5.90409171
      1.25000000	     -3.63968009	     -5.10713353	     -5.78882529	     -1.29894745	      1.00372419	     -0.39093544	     -1.97620132	     10.72597981	      6.02638518	    -10.38644517	     14.48760507	     -7.08535916	     28.76215432	     -5.79324839	      4.64340779	    -23.38659670	      7.82368929	      7.94059369	    -13.43896691	      2.59218283	      5.94457696
      1.26000000	     -3.69861819	     -5.02901431	     -6.06082787	     -1.29386908	      1.00288592	     -0.39086194	     -2.15918640	     10.59662109	      6.26000984	    -10.55762925	     14.84480242	     -7.06979876	     28.75363956	     -5.71775790	      4.56624424	    -23.04403318	      7.85029952	      8.09726526	    -13.38554448	      2.52420529	      5.94866923
      1.27000000	     -3.73054290	     -4.93593075	     -6.36258124	     -1.28859392	      1.00206912	     -0.39078737	     -2.36317417	     10.44367750	      6.52516545	    -10.76439919	     15.18663325	     -7.02457257	     28.68824482	     -5.63559632	      4.46138868	    -22.77672534	      7.87406311	      8.31345125	    -13.34720065	      2.43903623	      5.97009666
      1.28000000	     -3.76094533	     -4.83154297	     -6.67194888	     -1.28309624	      1.00121601	     -0.39074720	     -2.57269240	     10.27149225	      6.77621214	    -10.98140896	     15.56001634	     -6.97516700	     28.59522934	     -5.54029867	      4.34414216	    -22.58275730	      7.87779813	      8.51035478	    -13.28701657	      2.34777885	      5.99379018
      1.29000000	     -3.76863218	     -4.71158657	     -7.00372715	     -1.27743697	      1.00037153	     -0.39074152	     -2.78819019	     10.07465827	      7.06224901	    -11.24916282	     15.91433398	     -6.88803358	     28.45242999	     -5.42662221	      4.22363828	    -22.46846609	      7.84743405	      8.74007405	    -13.24701805	      2.24321898	      6.02252817
      1.30000000	     -3.78757931	     -4.57936419	     -7.34247875	     -1.27156843	      0.99947062	     -0.39078259	     -2.98736857	      9.85799463	      7.32472704	    -11.53977018	     16.30898986	     -6.81421243	     28.29344494	     -5.29732245	      4.09127037	    -22.42328363	      7.75977336	      8.89444286	    -13.17007350	      2.13512337	      6.04736844
      1.31000000	     -3.79836671	     -4.43571563	     -7.69317386	     -1.26554048	      0.99855398	     -0.39087389	     -3.18810333	      9.62090174	      7.61224341	    -11.85638505	     16.70313237	     -6.72114319	     28.10949899	     -5.14736866	      3.97529310	    -22.46973223	      7.60031385	      9.01258777	    -13.09214871	      2.02001562	      6.09539289
      1.32000000	     -3.79190592	     -4.28084466	     -8.07074917	     -1.25934713	      0.99766384	     -0.39095540	     -3.38911328	      9.36411609	      7.92270528	    -12.22274296	     17.07294409	     -6.56724270	     27.87812902	     -4.99261103	      3.82296585	    -22.57966554	      7.37307709	      9.08445949	    -13.02131543	      1.88854636	      6.13981400
      1.33000000	     -3.79271480	     -4.11364271	     -8.44765280	     -1.25302571	      0.99673772	     -0.39108543	     -3.56747306	      9.09071317	      8.23594308	    -12.62362436	     17.45154806	     -6.42873767	     27.66588707	     -4.81372813	      3.68792446	    -22.80398299	      7.06706523	      9.03695306	    -12.93059852	      1.74985237	      6.19383947
      1.34000000	     -3.77532135	     -3.94762307	     -8.83805135	     -1.24657228	      0.99584716	     -0.39119557	     -3.75571453	      8.81289015	      8.58076535	    -13.05586105	     17.81476748	     -6.18409097	     27.44625110	     -4.63814581	      3.52411709	    -23.13495227	      6.71835088	      8.77314413	    -12.85215475	      1.60424462	      6.26232624
